<svg width="200" height="25" viewBox="0 0 200 25" fill="none" xmlns="http://www.w3.org/2000/svg">
<path d="M0 0.0716332C0.252276 1.28067 0.766075 2.3843 1.48743 3.26662C2.20879 4.14894 3.11109 4.77739 4.09956 5.08596H10.5417L10.8346 5.15759V24.9284H14.817V5.22923L15.2269 5.01433H21.6691C22.6548 4.69884 23.5541 4.06809 24.2746 3.18685C24.9951 2.30561 25.5107 1.20567 25.7687 0L0 0V0.0716332ZM139.736 0.0716332H135.754V25H154.026C154.892 24.5997 155.665 23.9466 156.277 23.0977C156.89 22.2487 157.323 21.2296 157.54 20.1289H139.795V0L139.736 0.0716332ZM109.107 4.94269C111.215 4.22636 112.972 2.22063 113.441 0L91.1274 0.0716332V14.8281H109.341V19.9857H95.0512C93.9602 20.3328 92.9418 20.9593 92.0635 21.8237C91.1852 22.6881 90.4669 23.7708 89.9561 25H113.324V9.95702H95.0512V4.94269H109.107ZM177.16 25H181.083V14.9713H195.49V25H199.414V9.95702H177.16V25ZM49.9561 5.01433H65.183C66.1851 4.7244 67.1028 4.10345 67.836 3.21921C68.5693 2.33497 69.0899 1.22141 69.3411 0L45.8565 0C46.103 1.21247 46.6148 2.3199 47.3371 3.20334C48.0594 4.08679 48.9648 4.71287 49.9561 5.01433ZM49.9561 14.8997H65.183C66.1851 14.6098 67.1028 13.9888 67.836 13.1046C68.5693 12.2204 69.0899 11.1068 69.3411 9.88539H45.8565C46.103 11.0979 46.6148 12.2053 47.3371 13.0887C48.0594 13.9722 48.9648 14.5983 49.9561 14.8997ZM49.9561 25H65.183C66.1851 24.7101 67.1028 24.0891 67.836 23.2049C68.5693 22.3206 69.0899 21.2071 69.3411 19.9857H45.8565C46.103 21.1981 46.6148 22.3056 47.3371 23.189C48.0594 24.0725 48.9648 24.6985 49.9561 25ZM180.673 5.01433H195.9C196.892 4.71287 197.797 4.08679 198.519 3.20334C199.242 2.3199 199.754 1.21247 200 0L176.574 0C176.82 1.21247 177.332 2.3199 178.055 3.20334C178.777 4.08679 179.682 4.71287 180.673 5.01433Z" fill="white"/>
</svg>
